<svg xmlns="http://www.w3.org/2000/svg" width="178" height="131" fill="none" viewBox="0 0 178 131">
  <path fill="#225233" d="M177.55.49H0v129.62h177.55V.49Z"/>
  <path fill="#fff" d="M113.5 98.31s-.3-.48-.6-.48-.55.18-.6.48h-2.72c0-.36 0-.72.1-1.09h5.64l.15.3c.15.3.3.54.55.79h-2.52Zm3.68-3.26h-6.6c.4-.42.6-1.03.5-1.57a.906.906 0 0 0-1.01-.79c-.5 0-.91.48-.86 1.03v.36c.1.36.05.67 0 1.03H59.16c.76 1.33 2.11 2.12 3.58 2.12h45.67c-.5.42-.81 1.09-.7 1.75.05.48.5.85 1.01.79.5 0 .91-.48.86-1.03v-.18h2.67c0 .3.3.54.65.54.35 0 .6-.24.65-.54h2.72c.55.48 1.31.79 2.06.79.7 0 1.31-.6 1.31-1.33v-.36c0-1.39-1.06-2.48-2.42-2.48m12.55-41.24c0-2.54-.76-9.25-.96-11.55-.2-2.24-.4-4.35-.35-4.84 0-.48.6.67.91.73.15 0 .1-.73-.2-1.33-.2-.42-.81-1.94-1.21-2.84-.2-.42-.2-.67-.3-.73-.1 0-.81 1.75-.71 2 .2.36.3.54.35 1.21 0 .67.3 5.32.6 8.89.25 2.66.81 8.46.81 12.03 0 1.15-.1 2.3-.2 2.78-.3.73-.81 1.39-2.57 2.78-2.01 1.51-4.68 2.78-5.84 3.69-.71.54-.5.6.15.36.6-.24 3.83-.97 5.39-1.81 1.46-.79 2.42-2.18 3.12-4.11.91-2.42.96-4.54.96-7.2m-6.14-19.17s1.46-.18 1.76-.06c-.2.42-1.76 1.39-1.76 1.51 0 .12 1.06-.24 1.41-.42.2-.18.35-.42.5-.6.35-.54.81-1.57.71-1.69-.2-.18-1.91-.06-2.17 0-.15 0-.55.97-.6 1.21-.05.24 0 .18.2.12"/>
  <path fill="#fff" d="M126.2 49.7c.25-1.21.35-2.6 0-4.11-.35-1.57-1.31-2.48-1.96-2.96l-.1 1.51s.96.6 1.56 2.12c.4.97.55 2.36.25 3.87-.05.36.15.18.3-.42m-10.03 7.49c.25-1.09.3-2.36 0-3.69-.35-1.39-1.16-2.24-1.76-2.66l-.1 1.33s.86.54 1.41 1.94c.35.85.5 2.12.25 3.51 0 .36.15.18.25-.36M81.68 36.83c.4.91.55 2.24.25 3.69-.05.36.15.18.25-.36.25-1.15.3-2.48 0-3.93-.35-1.45-1.26-2.36-1.86-2.84l-.1 1.45s.91.6 1.51 2.05m-23.37.42c.3.97.35 2.36-.2 3.75-.1.36.15.18.35-.36.4-1.09.65-2.42.45-3.93-.2-1.57-1.11-2.6-1.76-3.14l-.3 1.39s.96.73 1.46 2.3v-.01Z"/>
  <path fill="#fff" d="M56.6 64.21c-3.22 1.15-6.34-.6-6.55-4.17-.15-2.66.6-4.72 1.11-5.86.45-.3.91-.6 1.26-.85-.86 1.75-1.36 4.11-1.01 6.17.35 2.3 1.91 3.63 4.48 3.2 2.57-.42 5.99-3.57 6.95-4.78.3-.42.5-.85.76-1.63.1-.3.25-.73.3-1.21 0-.3.05-.67.05-.97.3-.12.6-.24.91-.36.1 1.45.2 2.84.2 4.11-1.61 2.42-5.24 5.26-8.46 6.41m5.24-11.73c-1.71 0-1.76-.42-1.76-.67 0-.25.55-.97 1.26-.48.3.18.6.6.91 1.15h-.41Zm-7.7-3.63s-.15-.24 0-.36c.1-.12.25-.24.45-.3.35-.06.5.48.35 1.33-.3-.24-.55-.48-.81-.67h.01Zm10.68 10.64c.4-1.03.6-1.69.76-2.84.15-1.03.15-2.24.1-3.45 1.26-.67 2.72-1.75 3.22-1.81-.35 1.51.45 3.14 2.11 2.96.1 1.69.25 3.2.3 4.11.15 1.81.1 4.11.1 4.53 0 .42.2.3.45-.54.3-1.21.4-4.35.3-6.41 0-.54-.05-1.21-.15-2 1.06-.67 1.26-1.88 1.61-2.42.35 1.63 2.32 1.87 2.92 1.51.76-.42 1.01-1.21 1.21-3.02.2-1.81-.35-2.54-.55-2.72 0 .24-.5 2.36-.5 2.36s.45.67.5.97c-.4.42-1.16.48-1.86.18-.65-.3-.91-.79-.86-1.15 0-.36.3-.67.3-1.09 0-.42-.15-.3-.4.06s-.45.73-.81 1.57c-.3.67-.81 1.51-1.66 1.69-.15-2-.3-4.05-.4-5.38-.05-.67-.65-6.71-.65-7.38 0-.6-.1-1.27-.1-1.57 0-.24.15-.18.35.12.2.24.55.72.6.72.2-.12 0-.91-.25-1.63-.25-.72-1.11-3.45-1.31-3.57-.1 0-.71 1.63-.71 2 .1.18.35.54.35 1.45 0 .24.15 2.72.3 5.08.15 2.06.35 3.99.4 4.23.15 1.57.3 3.81.5 5.99-.96-.24-1.21-1.03-1.16-1.51 0-.54.2-1.09.1-1.27-.2-.12-1.26.67-2.77 1.51-.4.24-.91.48-1.41.72-.15-1.51-.3-2.9-.35-3.99v-.12c1.01-.06 1.81-.73 2.17-1.39.45-.79.81-2.36.81-3.63s-.76-3.51-.91-4.17c-.2-.73-.3-1.21-.3-1.45s.4.3.71.36c.2 0 .1-.48-.1-.85-.2-.36-1.41-2.72-1.51-2.54-.05.12-.55 1.81-.55 2.12.2.18.4.6.4 1.03 0 .43.3 2.3.55 3.39.3 1.03.91 3.08.96 3.63-.45.42-1.46 1.09-2.47 1.09-.15-1.81-.4-3.99-.5-5.5v-1.51c0-.24.15-.24.35 0 .2.24.5.67.55.6.15 0 0-.67-.25-1.33S64 33.66 63.8 33.54c-.1 0-.55 1.57-.6 1.93.1.18.35.54.35 1.45 0 .73.3 4.41.55 7.62-1.01-.67-1.36-1.63-1.46-3.26-.1-1.15-.1-3.2-.4-4.9-.15-.97-.55-2-.96-2.48-.1.3-.55 2.3-.55 2.3.15.54.6 2.48.6 4.17s-.1 3.33-1.56 4.41c-1.46 1.15-3.58.67-4.13-1.09-.55-1.75.65-6.17.65-7.19 0-1.02-.15-1.21-.5-1.03-.35.18-1.01 1.15-1.61 2.78-.6 1.63-.86 3.63-1.16 5.02-.35 1.39-.86 2.78-1.71 2.72-.81-.06-1.26-1.09-1.51-2.48-.25-1.45-.1-3.32 0-3.75.15-1.21-.25-.97-.45.91-.15 1.15-.3 3.02.25 4.96.55 1.93 1.46 2.66 2.22 2.42.81-.24 1.51-2.66 1.76-3.75.25-1.09 1.36-5.92 1.96-6.17.1.54-.5 2.3-.65 4.35-.2 2.06.25 4.84 2.27 5.26 2.01.48 3.37-1.21 3.83-2.36.5-1.15.71-2.42.76-3.02.05 1.57.91 4.05 2.47 4.72.05 0 .1 0 .15.06.1 1.27.25 2.96.4 4.72-.3.12-.6.24-.96.36 0-.18-.1-.36-.15-.48-.5-1.39-1.31-2.66-2.42-2.54-1.16.06-2.42 2.06-2.37 3.51 0 .97.45 1.75 1.96 2 .71.12 1.41 0 2.17-.24.1.42.15.79.2 1.15-.45.73-4.43 4.59-7.35 4.96-2.97.36-3.88-1.63-3.88-3.69 0-1.51.71-3.08 1.21-4.11.7-.67 1.31-1.51 1.66-2.18.1.06.2.18.3.24.35.24.5.66.5.66.05-.12.35-.85.25-1.21-.05-.06-.3-.3-.65-.54.35-1.09.35-2.18-.1-2.42-.5-.24-1.11.48-1.41.97-.15.24-.2.48-.2.72 0 .3.1.54.35.79.25.24.5.42.71.6-.65.91-2.17 2.18-3.12 2.96 0-.12-.15 0-.35.3-.1.06-.2.12-.25.18-.76.6-2.52 1.87-2.87 2.24-.35.3-.15.24 0 .18.25-.18.55-.36.96-.6.5-.3 1.11-.73 1.71-1.09-.15.36-.35.85-.5 1.33-.71 2.18-1.81 6.65.6 9.31 2.37 2.6 6.4 1.57 9.72-1.09 3.37-2.66 4.08-3.63 4.58-4.59m47.63-4.52c-.1-2.36-.35-6.59-.5-8.77-.15-1.93-.4-4.53-.55-6.89 0-.6-.05-1.15 0-1.45 0-.24.2-.18.4.12.2.24.5.6.55.54.2-.12 0-.79-.3-1.45-.25-.67-1.36-3.57-1.51-3.69-.1 0-.6 1.69-.6 2 .1.18.35.54.35 1.45 0 .97.4 5.26.65 8.77.2 2.42.4 6.41.6 9.37 0 0 .15 2.84.2 3.14.1 1.81.05 4.11 0 4.53 0 .42.2.3.45-.54.25-.91.4-2.96.4-4.78v-2.36m-9.26-8.21c-.35.12-.86-.3-.81-1.27 0-.85.3-1.69.45-2.18.15-.73.15-1.39 0-.97-.3.85-.81 2.54-.91 3.63-.1 1.15.15 1.87.55 2.12.45.3.81-.18 1.06-.91.2-.67.2-1.51 0-1.33-.15.18-.2.85-.35.91h.01Zm-4.78 3.45c.15-.6.2-1.21.1-.85-.3.73-.86 2.12-1.06 3.14-.15.97 0 1.63.35 1.87.4.3.71-.06.96-.73.25-.6.25-1.33.1-1.15-.1.18-.2.73-.35.79-.3.06-.7-.36-.65-1.21.1-.72.4-1.45.5-1.87M85 63.07c.3-.6.45-1.27.25-.91-.45.73-1.31 2.12-1.66 3.14-.35 1.03-.25 1.81.05 2.18.4.42.81.06 1.21-.54.35-.6.5-1.39.3-1.21-.15.12-.35.79-.5.79-.35 0-.76-.54-.5-1.45.2-.79.65-1.45.86-1.93m24.21-18.15c-.35.12-.86-.36-.76-1.33.1-.85.4-1.63.5-2.12.2-.67.2-1.39.05-.97-.3.85-.96 2.48-1.11 3.57-.15 1.09.1 1.87.45 2.12.45.36.81-.12 1.11-.85.25-.67.25-1.51.1-1.33-.15.18-.2.85-.4.91m-.03 11.67c.45.36.81-.12 1.11-.85.25-.66.25-1.51.1-1.33-.15.18-.2.85-.4.91-.35.12-.86-.36-.76-1.33.1-.85.4-1.63.5-2.11.2-.67.2-1.39.05-.97-.3.85-.96 2.48-1.11 3.57-.15 1.09.1 1.87.45 2.12m5.95-14.95c.2-.85.25-1.63.1-1.21-.4 1.03-1.11 2.96-1.31 4.35-.2 1.33.1 2.24.55 2.6.55.42 1.01-.18 1.31-1.03.3-.85.3-1.81.1-1.57-.15.24-.25 1.03-.45 1.09-.4.12-1.01-.48-.91-1.63.1-1.03.5-2 .65-2.6"/>
  <path fill="#fff" d="M68.03 56.23c.35-1.03.5-2.06.25-1.51-.6 1.21-1.71 3.57-2.11 5.26-.4 1.69-.1 2.84.45 3.32.65.6 1.26 0 1.76-1.09.45-.97.55-2.24.3-2-.25.24-.45 1.27-.71 1.33-.5.12-1.21-.73-.96-2.18.2-1.27.81-2.42 1.06-3.14m50.67 10.17c.3-.3 2.67-1.99 3.12-2.36 0 0 .45-.97.3-1.09-.15-.12-1.01.97-1.56.97s-1.31-.48-1.31-.91c.05-.3.76-.79.96-.85.25 0 .2.67.3.79.1.06.4-.48.45-.73 0-.24 0-1.21-.45-1.09-.71.24-1.71 1.88-1.86 2.42-.1.54.5.97 1.01 1.21 0 0-.4.24-.6.54 0 0-.25.36-.35 1.03m-8.22 2.13c.3-.3 2.67-2 3.12-2.36 0 0 .45-.97.3-1.09-.15-.12-1.01.97-1.56.97s-1.31-.48-1.31-.91c.05-.3.76-.79.96-.85.25 0 .2.67.3.79.1.06.4-.48.45-.73.05-.24 0-1.21-.45-1.09-.71.24-1.71 1.87-1.86 2.42-.1.54.5.97 1.01 1.21 0 0-.4.24-.6.54 0 0-.25.36-.35 1.03M92 38.1c.2.3 1.61 2.66 2.72 4.17 1.11 1.45 3.02 3.87 4.43 5.5l.86 1.03c.35 3.51.76 7.98.91 9.85.15 1.81.2 4.11.2 4.53 0 .42.2.3.45-.6.3-1.21.3-4.35.15-6.41-.1-1.27-.3-3.69-.5-5.86.81 1.09 1.61 2.12 2.11 2.9.96 1.45 1.76 2.54 2.27 4.11.35 1.09.3 2 .45 2.18.1.12.25-1.15.1-2.42-.25-2.06-.6-2.96-2.62-5.92-.76-1.15-1.71-2.3-2.62-3.45 0-.36-.05-.67-.1-.91-.05-.67-.76-6.71-.81-7.38 0-.6-.15-1.27-.1-1.57 0-.24.15-.18.35.12.2.24.55.73.6.67.2-.12 0-.91-.3-1.57-.25-.67-1.21-3.45-1.41-3.57-.1 0-.65 1.69-.7 1.99.1.18.35.54.35 1.45 0 .24.2 2.72.4 5.08.2 2.06.45 3.99.45 4.23-.91-1.09-1.76-2.06-2.22-2.6-1.16-1.39-3.73-4.59-3.83-5.08 0-.18.15 0 .55 0 .35.06.71.24.65 0 0-.12-.15-.36-.5-.67-.35-.3-1.26-1.03-1.91-1.51-.65-.54-1.01-.97-1.16-.85-.05.06 0 1.81 0 2.06.15 0 .45.3.65.6"/>
  <path fill="#fff" d="M93.82 34.95c.25-.06 1.56 0 2.06.12-.2.18-1.51 1.03-1.76 1.27-.25.18-.35.3-.2.3.4-.12 1.26-.3 1.66-.6.4-.24 1.06-1.39 1.31-1.81.25-.42.25-.66.2-.79-.25-.18-1.96-.36-2.77-.12-.2.18-.65 1.27-.76 1.51-.05.24 0 .18.3.12m7.16-.12s1.26 0 1.66.06c-.15.12-1.21.85-1.46 1.03-.2.18-.25.24-.15.24.3-.12 1.01-.24 1.31-.48.3-.18.86-1.15 1.06-1.45.2-.36.2-.54.15-.6-.2-.12-1.56-.3-2.22-.06-.2.18-.55 1.03-.6 1.21-.05.18 0 .18.25.12m5.89-.19s1.26 0 1.66.06c-.15.12-1.21.85-1.46 1.03-.2.18-.25.24-.15.24.3-.12 1.06-.24 1.36-.48.3-.18.7-1.15.91-1.45.2-.36.2-.54.15-.6-.2-.12-1.46-.3-2.12-.06-.2.18-.55 1.03-.6 1.21-.05.18 0 .18.25.12m-3.68 3.68c-.35.73.1 1.27.25 1.88-.2.24-.55 0-.65-.18-.25-.48-.15-1.39-.45-1.51-.05.24-.1.54-.1.54s.2.67.15 1.09c0 .24-.2.54-.45.54-.6 0-.3-1.15-.55-1.81 0 .18-.1.36-.15.48 0 .18.05.42.05.54v.85c0 .36.2.54.4.6.45 0 .65-.42.76-.85.1.42.71.85.96.36.4-.67.1-1.21-.1-1.81-.15-.42-.1-.73-.2-.6m-17.04-2.06s.15.48.35.54c.4.06.6-.36.65-.67.05.36.55.79.81.36.35-.54.1-1.03 0-1.57-.1-.42-.05-.67-.15-.54-.3.6 0 1.09.15 1.63-.2.18-.45 0-.55-.18-.2-.42-.1-1.21-.3-1.33-.05.24-.1.42-.1.42s.15.54.1.91c0 .24-.2.48-.4.48-.5 0-.2-1.03-.4-1.57 0 .12-.1.3-.15.42v1.21m11.67 26.25s.35.42.4.6c-.25 0-.76-.18-.96-.3.1-.3.35-.42.55-.36m.76 1.33s.2-.48.15-.67c0-.24-.25-1.15-.65-1.39s-.7.24-.91.97c-.05 0-.1-.06-.15 0 0 .12-.05.24-.1.54 0 .42-.15.67-.65 1.27-.45.54-1.86 1.75-2.82 2.36-.91.6-1.61 1.09-1.86 1.27-.25.18-.15.18.05.12.25-.12 1.46-.6 1.96-.91.5-.24 1.11-.73 1.81-1.33.81-.67 1.31-1.39 1.46-1.93.1-.42.15-.6.15-.6s.3.24.81.36c.5.18.65.12.7 0"/>
  <path fill="#fff" d="M92.71 49.89c.55-.79 1.71-.3 2.57.73-.45.12-1.06.36-1.71.67-.4-.6-.86-1.21-.86-1.39v-.01Zm.4 14.93c-.71-.12-2.52-.48-2.97-1.88.35-.73 2.06-1.57 4.18-2.42 2.12-.85 4.38-1.93 4.93-2.42h.4c.1-.42.65-1.81.65-2.12-.6 0-4.28.42-5.89.48-1.61.12-4.78.06-5.84.06.65-.6 2.17-1.75 4.33-2.78.3-.12.55-.24.81-.36.2.42.3.85.35 1.21.15-.18.25-.79.2-1.45 1.26-.54 1.91-.73 2.22-.79.2-.3.5-1.51.55-2.42-.2-.42-.81-1.03-1.31-1.51-.71-.66-1.51-1.27-2.32-.97-1.06.36-1.31 2.9-1.06 3.45.1.18.25.48.5.85-.81.42-1.61.85-2.32 1.39-1.61 1.09-3.42 2.3-3.93 3.45-.1 0-.15 0-.15.12s-.35 1.94-.4 2.12c.35 0 2.82 0 4.58-.06 1.76-.06 3.27-.12 3.88-.12-.91.3-3.17 1.39-3.88 2.05-.65.67-1.06 1.63-1.11 3.39-.6-.3-1.76-1.03-2.77-2.78-1.11-1.94-.86-3.93-1.31-6.53-.65-3.75-2.01-6.95-2.82-7.92-.3 1.33-.3 2.36-.3 2.36s1.06 3.02 1.61 5.02c.55 1.93 1.01 3.87.96 4.29-.45 1.27-3.07 3.93-5.24 5.44-2.06 1.45-3.88 1.63-4.53.6-.15-.18-.2-.42-.25-.73.3-.18.55-.36.86-.48 1.86-1.09 5.14-3.45 5.94-4.66.86-1.45.81-3.57.35-4.72-.5-1.21-1.26-2.54-1.31-3.02 0-.24.5.12.81.12.15 0 .1-.3-.25-.73-.25-.36-1.31-1.45-1.71-1.87-.1-.12-.15-.06-.2 0-.1.42-.25 1.39-.3 1.87v.24c.1.06.25.18.3.42.1.36.4 1.33.91 2.54s1.26 2.6 1.31 3.26c-.6 1.03-3.63 3.14-6.6 4.9.2-.73.45-1.57.86-2.48l.3-.54c.3-.73.3-1.57.15-1.39-.15.18-.25.91-.45.91-.35.12-.86-.42-.76-1.45.1-.91.5-1.69.65-2.24.2-.73.3-1.45.1-1.03-.35.85-1.11 2.54-1.31 3.69-.2 1.15 0 2 .4 2.3.15.12.3.18.4.12-.25.67-.6 1.45-.81 2.36-1.21.67-2.37 1.33-3.32 1.75-3.42 1.63-5.89 2.54-7.6 3.26h-.05c.1-.54.1-.97 0-.85-.15.18-.25.91-.45.91-.35.12-.86-.42-.76-1.45.1-.91.5-1.69.65-2.24.2-.73.3-1.45.1-1.03-.35.85-1.11 2.54-1.31 3.69-.2 1.15 0 2 .4 2.3.45.36.86-.06 1.16-.85 0-.12.1-.18.1-.3.1 0 .3 0 .55-.12.81-.24 2.77-.6 5.44-1.09 2.01-.36 3.37-1.03 4.73-1.87v.6c.05 2.42 1.26 3.08 2.92 2.6 1.56-.42 3.78-2.3 5.14-3.63 1.36-1.33 2.17-2.54 2.37-2.96.35-1.03.45-2.11.5-2.66.1 1.45.2 3.51 1.26 5.2.96 1.57 2.97 3.81 6.75 3.87 0-.6-.15-2.42-.15-2.42m-17.9-30.02s.15-.36.4-.48.4.24.4.73c0 0 0 .12-.1.18-.1 0-.15-.06-.25-.12-.25-.12-.45-.18-.5-.36m1.06.06v-.3c.35.48.6 1.09.55 1.21-.15 0-.35-.18-.71-.36 0-.12.05-.3.1-.54m-4.28 4.59s1.01-.6 1.81-1.21c.81-.6 1.56-1.33 1.91-1.81.15-.18.25-.36.35-.48.25.12.4.24.5.3.15.06.35.18.5-.36.15-.6 0-.97-.3-1.39-.2-.36-.55-.91-.86-1.09-.25-.12-.35.6-.3.54h.15c-.35.24-.6.91-.6 1.15 0 .24 0 .48.5.6.05 0 .15 0 .2.06-.4.6-1.16 1.27-1.66 1.69-.71.66-1.76 1.45-2.06 1.69-.3.24-.25.3-.15.24"/>
  <path fill="#fff" d="M92.56 43.11c.25-.54.71-.6.86-.3.1.24.15.66 0 1.15-.45-.36-.81-.73-.81-.85m-2.87 5.56c.4-.36 1.51-1.39 2.11-2.06.45-.48.96-1.15 1.26-1.75.2.18.4.36.6.48.35.24.5.67.5.67.05-.12.35-.85.25-1.21-.05-.12-.5-.42-.96-.79.2-.67.55-1.81.1-2.18-.4-.36-1.01.24-1.31.97-.25.6-.25 1.09.2 1.51.15.12.25.24.4.36-.45.67-1.36 1.63-1.96 2.36-.76.85-1.51 1.63-1.61 1.87v.06c-.15-.6-.1-.97-.25-.79-.55 1.09.15 2 .4 2.84-.35.36-.86 0-1.01-.3-.35-.73-.25-2.12-.65-2.36-.1.36-.2.85-.2.85s.3.97.25 1.63c-.05.42-.3.85-.65.85-.96 0-.45-1.75-.86-2.78-.05.24-.1.54-.2.73.05.24.1.67.1.85 0 .42 0 .91.05 1.27.1.54.3.85.65.91.7.06 1.01-.67 1.11-1.27.1.6 1.06 1.27 1.51.54.6-1.03.1-1.87-.2-2.78v-.12s.2-.06.45-.3"/>
  <path fill="#fff" d="M74.43 45.11c-.81-.06-1.26-1.09-1.51-2.48-.25-1.45-.1-3.33 0-3.75.05-.48-.3-.24-.45.91-.15 1.15-.3 3.02.25 4.96s1.46 2.66 2.22 2.42c.81-.24 1.51-2.66 1.76-3.75.25-1.09 1.36-5.5 1.96-5.74.1.54-.5 1.93-.65 3.99-.2 2.06.15 4.72 2.11 5.2 2.01.48 3.37-1.21 3.83-2.36.5-1.15.71-2.42.76-3.02.05 1.57.91 4.05 2.47 4.72 1.56.67 2.72 0 3.27-.85.45-.79.86-2.36.86-3.63s-.81-3.51-.96-4.17c-.2-.73-.3-1.21-.3-1.45s.4.3.71.36c.2 0 .1-.48-.1-.85-.2-.36-1.41-2.72-1.51-2.54-.05.12-.55 1.81-.55 2.12.2.18.4.6.4 1.03 0 .43.35 2.3.6 3.39.3 1.03.86 3.08.91 3.63-.55.54-1.86 1.21-3.07.54-1.21-.67-1.61-1.63-1.76-3.45-.1-1.15-.1-3.21-.4-4.9-.15-.97-.55-2-.96-2.48-.1.3-.55 2.3-.55 2.3.15.54.6 2.48.6 4.17s-.1 3.33-1.56 4.41c-1.46 1.15-3.47.67-4.03-1.09-.55-1.75.65-5.68.65-6.77 0-1.03-.15-1.21-.5-1.03-.35.18-1.01 1.15-1.61 2.78-.6 1.63-.86 3.27-1.16 4.65-.35 1.39-.86 2.78-1.71 2.72l-.02.01ZM51.21 34.89s0-.48.2-.66c.25-.18.45 0 .55.48 0 .18-.1.3-.2.42-.2-.06-.5-.24-.55-.3m1.01.06v-.48c.3.3.86.91.81 1.21-.2 0-.6-.18-.96-.3 0-.12.1-.3.1-.48m-1.71 4.17c1.01-.12 1.86-1.09 2.11-1.39.2-.24.35-.67.2-.54-1.16 1.39-2.77 1.39-2.82 1.15 0-.24.45-.6 1.06-1.15.35-.3.71-.6.96-1.03h.05c.45.12.96.36 1.11.18.25-.3.3-.85 0-1.45-.25-.48-.81-.97-1.26-1.27-.45-.3-.55.18-.65.36-.05.18 0 .3.05.3-.15.3-.25.6-.3.91 0 .18 0 .36.05.48 0 0 .1.18.25.24.05 0 .15 0 .2.06-.35.42-.76.79-.96.91-.4.3-.86.85-1.01 1.39-.15.54-.1.73.91.67m3.12 15.11c-.3.3-.4 1.39-.35 1.45.05.06.96.48 1.11.54v-.3c.5.48.96 3.02 1.11 3.02.1 0 .25-.3.35-.97.1-.6.2-1.57.3-2.3.1-.73.25-1.09.55-1.15.3-.06.55.48.65.85 0 0 .2-.73.25-1.15-.05-.24-.55-1.09-.96-.79-.4.3-.65 1.51-.76 2.24-.1.79-.15 1.69-.25 1.87-.1-.67-.45-1.81-.86-2.48-.45-.73-1.01-1.03-1.16-.85l.02.02Zm-3.93-1.27c.4-.12 1.26-.3 1.66-.6.4-.24 1.06-1.39 1.31-1.81.25-.42.25-.67.2-.79-.25-.18-1.96-.36-2.77-.12-.2.18-.65 1.27-.76 1.51-.05.24 0 .18.3.12.25-.06 1.56 0 2.06.12-.2.18-1.51 1.03-1.76 1.27-.25.18-.35.3-.2.3m78.62 6.16c0-1.27-.5-3.27-2.37-6.29-.65-1.03-1.51-2.42-2.47-3.81 0-.48-.05-.91-.1-1.27-.1-1.94-.55-5.86-.7-8.16v-1.51c0-.24.15-.24.35 0 .2.24.5.67.55.6.15 0 0-.67-.25-1.33s-1.26-3.51-1.46-3.63c-.1 0-.55 1.57-.6 1.94.1.18.35.54.35 1.45 0 .97.45 6.47.71 9.98v.18c-1.41-2.06-2.72-3.93-3.27-4.66-.1-.12-.2-.3-.3-.42-.1-.91-.15-1.81-.25-2.54v-1.51c0-.24.15-.24.35 0 .2.24.5.67.55.6.15 0 0-.67-.25-1.33-.25-.67-1.31-3.57-1.51-3.69-.1 0-.6 1.75-.6 2.05.1.18.35.55.35 1.45 0 .42.1 1.63.2 3.14-.96-1.45-1.86-2.96-1.91-3.27 0-.18.15 0 .55 0 .35.06.71.24.65 0 0-.12-.15-.36-.5-.67-.35-.3-1.26-1.03-1.91-1.51-.65-.54-1.01-.97-1.16-.85-.05.06 0 1.81 0 2.06.15 0 .45.18.65.54.2.36 1.46 2.66 2.47 4.23.3.42.76 1.15 1.26 2 .1 1.45.2 2.96.3 4.23.2 2.84.96 10.4.96 12.82-.55.67-1.66 1.57-2.82 1.63-1.16 0-1.76-.36-2.22-1.45-.15-.36-.25-.67-.4-1.03-.3-.73-1.01-1.15-1.66-.97h-.1c-.05 0-.15.06-.2.12-.45.3-.91.85-1.36 1.63-.81 1.39-1.31 2.9-1.86 4.23-.6 1.39-1.06 2.3-2.17 2.06-.76-.18-1.31-1.03-1.66-2.06 1.01-.91 1.71-2.05 2.27-3.69.71-2.12.96-4.47.86-7.13-.05-2.54-.96-8.4-1.16-10.7-.25-2.24-.55-4.11-.5-4.59 0-.48.6.6.91.73.15 0 .05-.73-.2-1.33-.2-.42-.81-2.24-1.21-3.08-.2-.42-.25-.67-.3-.73-.1 0-.76 1.81-.65 2 .2.36.35.54.35 1.21 0 .67.5 5.44.91 9.01.3 2.66.96 7.5 1.06 11.12 0 1.15-.1 2-.2 2.48-.3.73-.76 1.51-2.37 3.02-.25-2.12 0-3.87-.2-4.05-.25 0-.3 1.03-.35 2.3 0 .54 0 1.33.1 2.18-2.01 1.75-4.68 3.33-5.89 4.17-.76.48-.45.6.15.36s4.03-1.39 5.84-2.66c.05 0 .15-.12.2-.12.1.42.2.85.35 1.21.6 1.63 1.46 2.66 2.42 2.54.81-.06 1.36-1.21 1.86-2.48.5-1.33 1.36-3.87 2.22-4.84.3-.36.65-.66 1.01-.85 0 0 .55-.24 1.11.18.2.18.35.42.4.66.2.6.45 1.33.96 2 .91 1.09 2.32.91 3.37.24 1.06-.67 1.61-1.63 1.86-2.84.4-2.06.35-4.17.25-6.05-.1-2.12-.35-4.35-.5-6.65 0-.73-.15-1.75-.25-2.9 1.06 1.57 2.11 3.14 2.77 4.05.25.3.45.67.7.97.2 3.51.4 7.92.5 9.73.1 1.81 0 4.11 0 4.53 0 .42.15.3.4-.54.35-1.21.55-4.35.45-6.41 0-1.21-.15-3.51-.25-5.62.81 1.27 1.56 2.54 2.06 3.38.91 1.51 1.71 3.33 2.01 4.47.3 1.15.3 1.45.35 1.63.05.18.3-.6.25-1.93"/>
</svg>
