<svg id="Layer_1" data-name="Layer 1" xmlns="http://www.w3.org/2000/svg" xmlns:xlink="http://www.w3.org/1999/xlink" viewBox="0 0 486.1 109.4"><defs><style>.cls-1{fill:#af1917;}.cls-2{isolation:isolate;}.cls-3{fill:#009c98;}.cls-4{fill:#00625b;}.cls-5{fill:url(#linear-gradient);}</style><linearGradient id="linear-gradient" x1="7.77" y1="84.47" x2="106.22" y2="27.63" gradientTransform="matrix(1, 0, 0, -1, 0, 109.28)" gradientUnits="userSpaceOnUse"><stop offset="0.05" stop-color="#009c98"/><stop offset="0.42" stop-color="#2a2951"/><stop offset="0.79" stop-color="#b22318"/></linearGradient></defs><path class="cls-1" d="M128.61,29.61h8.75a7.56,7.56,0,0,1,5.38,1.82,4.58,4.58,0,0,1,1.32,3.29v.06a5,5,0,0,1-3.26,4.76c2.44.73,4.4,2.14,4.4,5v.06c0,3.52-3,5.61-7.46,5.61h-9.13ZM141.71,35c0-2-1.62-3.35-4.55-3.35H130.9v7.08H137c2.79,0,4.73-1.26,4.73-3.67Zm-4.32,5.79H130.9V48h6.9c3.12,0,5-1.38,5-3.67v-.06c0-2.19-1.8-3.48-5.41-3.48Z" transform="translate(0 0)"/><path class="cls-1" d="M149.2,44.41V35h2.26v8.87c0,2.82,1.53,4.59,4.2,4.59A4.49,4.49,0,0,0,160.22,44c0-.11,0-.23,0-.34V35h2.23V50.17h-2.23V47.53a5.78,5.78,0,0,1-5.2,3C151.34,50.49,149.2,48,149.2,44.41Z" transform="translate(0 0)"/><path class="cls-1" d="M166.26,48.23l1.15-1.61a8.9,8.9,0,0,0,5.25,1.93c1.83,0,3.15-.94,3.15-2.4v-.06c0-1.53-1.79-2.12-3.79-2.68-2.38-.67-5-1.49-5-4.28v-.06c0-2.62,2.17-4.35,5.17-4.35a10.48,10.48,0,0,1,5.46,1.67l-1,1.71a8.6,8.6,0,0,0-4.49-1.47c-1.8,0-2.94.94-2.94,2.2v.06c0,1.44,1.88,2,3.91,2.61,2.35.71,4.87,1.62,4.87,4.35v.06c0,2.88-2.38,4.55-5.4,4.55A10.43,10.43,0,0,1,166.26,48.23Z" transform="translate(0 0)"/><path class="cls-1" d="M182.21,29.17h2.58v2.49h-2.58Zm.15,5.81h2.26V50.17h-2.26Z" transform="translate(0 0)"/><path class="cls-1" d="M189.88,35h2.26v2.65a5.73,5.73,0,0,1,5.2-3c3.67,0,5.81,2.47,5.81,6.08v9.43h-2.26V41.3c0-2.82-1.53-4.58-4.2-4.58a4.47,4.47,0,0,0-4.56,4.38c0,.12,0,.25,0,.37v8.7h-2.26Z" transform="translate(0 0)"/><path class="cls-1" d="M207,42.62v-.06c0-4.37,3.08-7.9,7.28-7.9,4.5,0,7.08,3.58,7.08,8a4.45,4.45,0,0,1,0,.73h-12a5.3,5.3,0,0,0,5.34,5.14,6.28,6.28,0,0,0,4.79-2.14l1.41,1.26a7.84,7.84,0,0,1-6.25,2.85A7.55,7.55,0,0,1,207,43.08C207,42.93,207,42.77,207,42.62Zm12.07-.88c-.23-2.76-1.82-5.17-4.85-5.17-2.64,0-4.64,2.2-4.93,5.17Z" transform="translate(0 0)"/><path class="cls-1" d="M224.09,48.23l1.15-1.61a8.9,8.9,0,0,0,5.25,1.93c1.83,0,3.15-.94,3.15-2.4v-.06c0-1.53-1.79-2.12-3.79-2.68-2.38-.67-5-1.49-5-4.28v-.06c0-2.62,2.17-4.35,5.17-4.35a10.48,10.48,0,0,1,5.46,1.67l-1,1.71A8.6,8.6,0,0,0,230,36.63c-1.79,0-2.94.94-2.94,2.2v.06c0,1.44,1.88,2,3.91,2.61,2.35.71,4.87,1.62,4.87,4.35v.06c0,2.88-2.38,4.55-5.4,4.55A10.49,10.49,0,0,1,224.09,48.23Z" transform="translate(0 0)"/><path class="cls-1" d="M238.42,48.23l1.15-1.61a8.91,8.91,0,0,0,5.26,1.93c1.82,0,3.14-.94,3.14-2.4v-.06c0-1.53-1.79-2.12-3.79-2.68-2.38-.67-5-1.49-5-4.28v-.06c0-2.62,2.17-4.35,5.17-4.35a10.48,10.48,0,0,1,5.46,1.67l-1,1.71a8.6,8.6,0,0,0-4.49-1.47c-1.79,0-2.94.94-2.94,2.2v.06c0,1.44,1.88,2,3.91,2.61,2.35.71,4.87,1.62,4.87,4.35v.06c0,2.88-2.37,4.55-5.4,4.55A10.49,10.49,0,0,1,238.42,48.23Z" transform="translate(0 0)"/><path class="cls-1" d="M127.26,77l1.44-1.7a9.81,9.81,0,0,0,7.05,2.91c2.76,0,4.58-1.47,4.58-3.5v-.06c0-1.91-1-3-5.35-3.9-4.73-1-6.9-2.56-6.9-5.94v-.06c0-3.23,2.85-5.61,6.76-5.61a10.74,10.74,0,0,1,7.22,2.53l-1.35,1.79a9,9,0,0,0-5.93-2.23c-2.68,0-4.38,1.47-4.38,3.32v.06c0,1.94,1.06,3,5.58,4s6.7,2.67,6.7,5.82v.06c0,3.52-2.94,5.81-7,5.81A12,12,0,0,1,127.26,77Z" transform="translate(0 0)"/><path class="cls-1" d="M148.26,75.93V66.77h-2.12v-2h2.12V60.19h2.26v4.58h4.82v2h-4.82v8.87a2.24,2.24,0,0,0,1.92,2.53,2.29,2.29,0,0,0,.64,0,4.79,4.79,0,0,0,2.2-.53v1.94a5.63,5.63,0,0,1-2.73.64C150.11,80.22,148.26,79,148.26,75.93Z" transform="translate(0 0)"/><path class="cls-1" d="M158.77,75.55v-.06c0-3.2,2.65-4.9,6.49-4.9a16.05,16.05,0,0,1,4.67.64v-.52c0-2.74-1.67-4.15-4.52-4.15a10.55,10.55,0,0,0-4.61,1.12l-.68-1.85a12.72,12.72,0,0,1,5.53-1.26,6.63,6.63,0,0,1,4.9,1.67,6,6,0,0,1,1.56,4.44V80h-2.18V77.67a6.63,6.63,0,0,1-5.49,2.61C161.62,80.28,158.77,78.67,158.77,75.55ZM170,74.38V72.91a15.68,15.68,0,0,0-4.46-.65c-2.85,0-4.44,1.24-4.44,3.15h0c0,1.91,1.77,3,3.82,3C167.67,78.49,170,76.79,170,74.38Z" transform="translate(0 0)"/><path class="cls-1" d="M177.51,64.77h2.26v4a6.5,6.5,0,0,1,6.2-4.23V67h-.17c-3.32,0-6,2.37-6,7v6h-2.26Z" transform="translate(0 0)"/><path class="cls-1" d="M190.79,75.93V66.77h-2.12v-2h2.12V60.19h2.26v4.58h4.82v2h-4.82v8.87A2.25,2.25,0,0,0,195,78.17a2.15,2.15,0,0,0,.62,0,4.83,4.83,0,0,0,2.21-.53v1.94a5.63,5.63,0,0,1-2.73.64C192.64,80.22,190.79,79,190.79,75.93Z" transform="translate(0 0)"/><path class="cls-1" d="M211.9,71.35V59.4h2.32V71.2c0,4.44,2.38,6.94,6.29,6.94s6.2-2.29,6.2-6.79V59.4H229V71.18c0,6-3.44,9.1-8.58,9.1S211.9,77.17,211.9,71.35Z" transform="translate(0 0)"/><path class="cls-1" d="M234.73,64.77H237v3.06a6.82,6.82,0,0,1,5.81-3.38c3.64,0,7.26,2.88,7.26,7.87v.06c0,5-3.59,7.9-7.26,7.9A6.85,6.85,0,0,1,237,77.05v7.61h-2.26Zm13,7.64v-.06c0-3.58-2.47-5.87-5.35-5.87a5.65,5.65,0,0,0-5.49,5.8v.1a5.65,5.65,0,0,0,5.42,5.87h.07c3,0,5.36-2.17,5.36-5.84Z" transform="translate(0 0)"/><g class="cls-2"><path class="cls-3" d="M263.65,56.47v-.15c0-13.71,10.3-25.71,25.43-25.71s25.3,11.86,25.3,25.57v.14C314.38,70,304.08,82,288.94,82S263.65,70.18,263.65,56.47Zm44.9,0v-.15c0-11.29-8.24-20.53-19.61-20.53s-19.46,9.1-19.46,20.39v.14c0,11.3,8.24,20.54,19.6,20.54S308.55,67.76,308.55,56.47Z" transform="translate(0 0)"/><path class="cls-3" d="M326.25,31.46h5.68L350,58.6l18.12-27.14h5.69V81.19h-5.62V40.91L350.12,67.55h-.29L331.72,41V81.19h-5.47Z" transform="translate(0 0)"/><path class="cls-3" d="M406.32,31.1h5.25l22.67,50.09h-6l-5.83-13.14H395.31l-5.9,13.14h-5.76Zm13.85,31.83L408.88,37.64,397.51,62.93Z" transform="translate(0 0)"/><path class="cls-3" d="M444.05,31.46h5.25l31.33,39.85V31.46h5.47V81.19h-4.47L449.52,40.41V81.19h-5.47Z" transform="translate(0 0)"/></g><path class="cls-4" d="M7.49,78c1.77-.76,2.36-.79,21.14-9.15,19.2-8.55,45-17.54,58.56-39.74,5-8.25,3-17.59-7-23.16C69.25-.19,55.41,0,55.41,0s17.42,1,25,10.47S78.74,31.28,66,40.61c-15.59,11.4-57.91,27-60.73,28-5.55,2.1-3.83,6.93-3.83,6.93s1,2.71,1.75,4.45c.58,1.31,2.46,4.69,2.46,4.69S4.34,79.3,7.49,78Z" transform="translate(0 0)"/><path class="cls-4" d="M17.43,99.34S14.92,97,13.75,95.8c-1.45-1.45-3.14-3.38-3.14-3.38S9,88.6,17.85,85.76C32.4,81.12,55.8,71.45,69,63.27c15-9.3,27.69-23,27.29-33.74C95.83,17.53,88.8,11,88.8,11A31.61,31.61,0,0,1,101,28c2.55,9.15-2.47,23.89-16.55,34.85C69.59,74.37,55,80.64,44.85,84.71c-9.75,3.9-22.3,8.91-24.75,9.6C15.31,95.66,17.43,99.34,17.43,99.34Z" transform="translate(0 0)"/><path class="cls-4" d="M33.59,109.4s-2.33-1-3.48-1.6-3.68-1.88-3.68-1.88S25.6,102.8,31,101.2c15.86-4.67,31-10,46.19-18.9C89.25,75.3,102.6,62.71,105.5,53c3.68-12.31-1.45-25.11-1.45-25.11s6.68,11.76,6,23.23c-.41,6.43,0,21.36-30,38.46-15.53,8.86-26.31,11.63-40.4,15.83C32,107.66,33.59,109.4,33.59,109.4Z" transform="translate(0 0)"/><path class="cls-5" d="M102.61,78c-1.77-.76-2.37-.79-21.15-9.15-19.19-8.55-45-17.54-58.55-39.74-5.05-8.25-3-17.59,7-23.16C40.84-.19,54.68,0,54.68,0S37.26,1,29.73,10.47s1.63,20.81,14.39,30.14c15.6,11.4,57.91,27,60.74,28,5.55,2.1,3.82,6.93,3.82,6.93s-1,2.71-1.74,4.45c-.58,1.31-2.47,4.69-2.47,4.69S105.76,79.3,102.61,78ZM92.67,99.34S95.18,97,96.34,95.8c1.45-1.45,3.15-3.38,3.15-3.38s1.62-3.82-7.25-6.66C77.7,81.12,54.29,71.45,41.11,63.27c-15-9.3-27.7-23-27.3-33.74.45-12,7.49-18.5,7.49-18.5A31.68,31.68,0,0,0,9.1,28c-2.55,9.15,2.47,23.89,16.56,34.85C40.51,74.37,55.07,80.64,65.25,84.71,75,88.61,87.54,93.62,90,94.31,94.79,95.66,92.67,99.34,92.67,99.34ZM76.51,109.4s2.33-1,3.48-1.6,3.68-1.88,3.68-1.88.83-3.12-4.62-4.72c-15.85-4.67-31-10-46.18-18.9C20.8,75.25,7.46,62.71,4.56,53,.88,40.67,6,27.87,6,27.87S-.67,39.63.06,51.1c.4,6.43,0,21.36,30,38.46,15.53,8.86,26.31,11.63,40.41,15.83C78.1,107.66,76.51,109.4,76.51,109.4Z" transform="translate(0 0)"/></svg>